<svg width="64" height="64" viewBox="0 0 64 64" fill="none" xmlns="http://www.w3.org/2000/svg">
<path fill-rule="evenodd" clip-rule="evenodd" d="M13 20.8636C13 10.3702 21.5066 1.86365 32 1.86365C42.4934 1.86365 51 10.3702 51 20.8636V21.477C51 26.2905 49.2299 30.936 46.0267 34.5289L41.6048 39.4889C40.7212 40.48 40.0729 41.6578 39.7081 42.9345L38.7273 46.3673V56.1364C38.7273 58.8978 36.4887 61.1364 33.7273 61.1364H30.2727C27.5113 61.1364 25.2727 58.8978 25.2727 56.1364V46.3673L24.2919 42.9345C23.9271 41.6578 23.2788 40.48 22.3952 39.4889L17.9733 34.5289C14.7701 30.936 13 26.2905 13 21.477V20.8636ZM27.2727 47.2273V56.1364C27.2727 57.7932 28.6159 59.1364 30.2727 59.1364H33.7273C35.3841 59.1364 36.7273 57.7932 36.7273 56.1364V47.2273H27.2727ZM36.973 45.2273L37.785 42.385C38.2325 40.8188 39.028 39.3738 40.1119 38.1579L44.5338 33.198C47.4104 29.9714 49 25.7997 49 21.477V20.8636C49 11.4748 41.3888 3.86365 32 3.86365C22.6112 3.86365 15 11.4748 15 20.8636V21.477C15 25.7997 16.5896 29.9714 19.4662 33.198L23.8881 38.1579C24.972 39.3738 25.7675 40.8188 26.215 42.385L27.027 45.2273H32H36.973Z" fill="black"/>
<path fill-rule="evenodd" clip-rule="evenodd" d="M31.5 24.1C32.9359 24.1 34.1 22.936 34.1 21.5C34.1 20.0641 32.9359 18.9 31.5 18.9C30.0641 18.9 28.9 20.0641 28.9 21.5C28.9 22.936 30.0641 24.1 31.5 24.1ZM31.5 26.1C34.0405 26.1 36.1 24.0405 36.1 21.5C36.1 18.9595 34.0405 16.9 31.5 16.9C28.9595 16.9 26.9 18.9595 26.9 21.5C26.9 24.0405 28.9595 26.1 31.5 26.1Z" fill="black"/>
<path fill-rule="evenodd" clip-rule="evenodd" d="M31.5 29.275C35.794 29.275 39.275 25.794 39.275 21.5C39.275 17.206 35.794 13.725 31.5 13.725C27.206 13.725 23.725 17.206 23.725 21.5C23.725 25.794 27.206 29.275 31.5 29.275ZM31.5 31.275C36.8986 31.275 41.275 26.8986 41.275 21.5C41.275 16.1014 36.8986 11.725 31.5 11.725C26.1014 11.725 21.725 16.1014 21.725 21.5C21.725 26.8986 26.1014 31.275 31.5 31.275Z" fill="black"/>
<path fill-rule="evenodd" clip-rule="evenodd" d="M28.2 11C28.2 9.89544 29.0954 9.00001 30.2 9.00001H32.8C33.9046 9.00001 34.8 9.89544 34.8 11V12.3H32.8V11L30.2 11V12.5875H28.2V11ZM30.2 30.4125V32H32.8V30.4125H34.8V32C34.8 33.1046 33.9046 34 32.8 34H30.2C29.0954 34 28.2 33.1046 28.2 32V30.4125H30.2Z" fill="black"/>
<path fill-rule="evenodd" clip-rule="evenodd" d="M21.7419 16.4088C20.9609 15.6278 20.9609 14.3615 21.7419 13.5804L23.5804 11.7419C24.3614 10.9609 25.6278 10.9609 26.4088 11.7419L27.3281 12.6612L25.9138 14.0754L24.9946 13.1561L23.1561 14.9946L24.2787 16.1172L22.8644 17.5314L21.7419 16.4088ZM36.8828 28.7213L38.0054 29.8439L39.8438 28.0054L38.7213 26.8829L40.1355 25.4686L41.2581 26.5912C42.0391 27.3722 42.0391 28.6386 41.2581 29.4196L39.4196 31.2581C38.6385 32.0391 37.3722 32.0391 36.5912 31.2581L35.4686 30.1355L36.8828 28.7213Z" fill="black"/>
<path fill-rule="evenodd" clip-rule="evenodd" d="M21 24.8C19.8954 24.8 19 23.9046 19 22.8V20.2C19 19.0954 19.8954 18.2 21 18.2H22.3V20.2L21 20.2L21 22.8H22.5875V24.8H21ZM40.4125 22.8H42V20.2H40.4125V18.2H42C43.1046 18.2 44 19.0954 44 20.2V22.8C44 23.9046 43.1046 24.8 42 24.8H40.4125V22.8Z" fill="black"/>
<path fill-rule="evenodd" clip-rule="evenodd" d="M36.5912 11.7419C37.3722 10.9609 38.6386 10.9609 39.4196 11.7419L41.2581 13.5804C42.0391 14.3615 42.0391 15.6278 41.2581 16.4088L40.3388 17.3281L38.9246 15.9139L39.8439 14.9946L38.0054 13.1561L36.8829 14.2787L35.4686 12.8645L36.5912 11.7419ZM24.2787 26.8829L23.1561 28.0054L24.9946 29.8439L26.1172 28.7213L27.5314 30.1355L26.4088 31.2581C25.6278 32.0391 24.3615 32.0391 23.5804 31.2581L21.7419 29.4196C20.9609 28.6385 20.9609 27.3722 21.7419 26.5912L22.8645 25.4686L24.2787 26.8829Z" fill="black"/>
</svg>
