<svg width="31" height="31" viewBox="0 0 31 31" fill="none" xmlns="http://www.w3.org/2000/svg">
<path d="M15.3624 0.1875C1.29008 0.1875 0.1875 1.29008 0.1875 15.3624V15.6376C0.1875 29.7099 1.29008 30.8125 15.3624 30.8125H15.6376C29.7099 30.8125 30.8125 29.7099 30.8125 15.6376V15.5C30.8125 1.30005 29.7 0.1875 15.5 0.1875H15.3624ZM12.4375 3.25H18.5625C27.0841 3.25 27.75 3.91593 27.75 12.4375V18.5625C27.75 27.0841 27.0841 27.75 18.5625 27.75H12.4375C3.91593 27.75 3.25 27.0841 3.25 18.5625V12.4375C3.25 3.91593 3.91593 3.25 12.4375 3.25ZM23.1523 6.3125C22.3049 6.31449 21.623 7.00236 21.625 7.84774C21.627 8.69511 22.3149 9.37699 23.1602 9.375C24.0076 9.37301 24.6895 8.68514 24.6875 7.83976C24.6855 6.99239 23.9976 6.31051 23.1523 6.3125ZM15.4821 7.84375C11.2552 7.85372 7.83378 11.2911 7.84375 15.5179C7.85372 19.7448 11.2911 23.1662 15.5179 23.1562C19.7448 23.1463 23.1662 19.7089 23.1562 15.4821C23.1463 11.2552 19.7089 7.83378 15.4821 7.84375ZM15.49 10.9062C18.0262 10.9003 20.0878 12.9539 20.0938 15.49C20.0997 18.0262 18.0461 20.0878 15.51 20.0938C12.9738 20.0997 10.9122 18.0481 10.9062 15.51C10.9003 12.9738 12.9539 10.9122 15.49 10.9062Z" fill="white"/>
</svg>
