<svg width="34" height="34" viewBox="0 0 34 34" fill="none" xmlns="http://www.w3.org/2000/svg">
<path d="M17 0.199951C7.7222 0.199951 0.199997 7.72215 0.199997 17C0.199997 26.2778 7.7222 33.7999 17 33.7999C26.2778 33.7999 33.8 26.2778 33.8 17C33.8 7.72215 26.2778 0.199951 17 0.199951ZM25.9054 22.5537L23.2902 22.5902C23.2902 22.5902 22.726 22.7008 21.9882 22.1912C21.0096 21.5192 20.087 19.7706 19.3674 19.9974C18.638 20.2298 18.6604 21.8034 18.6604 21.8034C18.6604 21.8034 18.666 22.0805 18.4994 22.2612C18.3188 22.4557 17.9646 22.4361 17.9646 22.4361H16.7928C16.7928 22.4361 14.2084 22.6504 11.9306 20.276C9.4498 17.6874 7.2574 12.5788 7.2574 12.5788C7.2574 12.5788 7.1286 12.2568 7.2658 12.0916C7.4212 11.9096 7.8398 11.904 7.8398 11.904L10.6398 11.89C10.6398 11.89 10.903 11.9362 11.0934 12.0762C11.2488 12.191 11.337 12.4066 11.337 12.4066C11.337 12.4066 11.7892 13.5532 12.3898 14.592C13.5602 16.6164 14.1034 17.0602 14.501 16.8432C15.0806 16.5268 14.907 13.9816 14.907 13.9816C14.907 13.9816 14.9182 13.0576 14.6158 12.646C14.3806 12.3254 13.9382 12.2302 13.745 12.2064C13.5868 12.1854 13.8444 11.8186 14.1804 11.6534C14.6844 11.407 15.5748 11.393 16.6262 11.4028C17.4452 11.4112 17.6818 11.4616 18.001 11.54C18.967 11.7738 18.6394 12.6754 18.6394 14.8384C18.6394 15.5314 18.5148 16.5058 19.0132 16.8264C19.2288 16.965 19.7538 16.8474 21.0628 14.6158C21.6858 13.5574 22.152 12.3142 22.152 12.3142C22.152 12.3142 22.2542 12.093 22.4124 11.9978C22.5748 11.8998 22.7932 11.9306 22.7932 11.9306L25.7402 11.9124C25.7402 11.9124 26.625 11.806 26.7692 12.2078C26.9204 12.6278 26.4388 13.6092 25.2348 15.215C23.258 17.8526 23.0382 17.6076 24.6804 19.1336C26.2484 20.591 26.5718 21.2994 26.6264 21.389C27.2746 22.4684 25.9054 22.5537 25.9054 22.5537Z" fill="white"/>
</svg>
